<?xml version="1.0" encoding="utf-8"?>
<!-- Generator: Adobe Illustrator 16.0.0, SVG Export Plug-In . SVG Version: 6.00 Build 0)  -->
<!DOCTYPE svg PUBLIC "-//W3C//DTD SVG 1.1//EN" "http://www.w3.org/Graphics/SVG/1.1/DTD/svg11.dtd">
<svg version="1.1" id="Layer_1" xmlns="http://www.w3.org/2000/svg" xmlns:xlink="http://www.w3.org/1999/xlink" x="0px" y="0px"
	 width="2500px" height="532px" viewBox="0 0 2500 532" enable-background="new 0 0 2500 532" xml:space="preserve">
<path fill="#FFFFFF" d="M2485.948,355.457c-7.754,0-14.053,6.298-14.053,14.053c0,7.754,6.298,14.053,14.053,14.053
	c7.754,0,14.053-6.299,14.053-14.053C2500,361.755,2493.701,355.457,2485.948,355.457L2485.948,355.457z M2485.948,381.334
	c-6.537,0-11.824-5.318-11.824-11.824c0-6.537,5.317-11.824,11.824-11.824c6.537,0,11.854,5.318,11.854,11.824
	S2492.484,381.334,2485.948,381.334z M2490.523,367.104c0-2.556-1.813-4.071-4.487-4.071h-4.486v12.806h2.197v-4.635h2.407
	l2.317,4.635h2.377l-2.556-5.109C2489.66,370.104,2490.523,368.855,2490.523,367.104L2490.523,367.104z M2485.948,369.212h-2.169
	v-4.247h2.169c1.484,0,2.377,0.742,2.377,2.109C2488.323,368.47,2487.404,369.212,2485.948,369.212L2485.948,369.212z
	 M792.69,213.235v-33.988h-52.11v202.206h52.11V260.207c0-21.956,14.083-32.741,36.039-32.741h28.521v-48.218h-24.362
	C813.814,179.247,797.236,189.199,792.69,213.235L792.69,213.235z M906.064,99.268c-17.826,0-31.493,14.083-31.493,31.909
	c0,17.41,13.667,31.493,31.493,31.493c17.825,0,31.492-14.083,31.492-31.493C937.555,113.35,923.889,99.268,906.064,99.268z
	 M880.067,381.453h51.993V179.247h-51.993V381.453z M1179.721,280.35c0,57.727-46.793,104.52-104.52,104.52
	c-23.293,0-44.416-7.635-61.352-20.529v76.474h-51.992V179.247h51.992v17.112c16.935-12.894,38.059-20.529,61.352-20.529
	C1132.928,175.83,1179.721,222.624,1179.721,280.35z M1127.403,280.35c0-31.344-25.432-56.776-56.776-56.776
	s-56.775,25.432-56.775,56.776s25.432,56.775,56.775,56.775C1101.971,337.125,1127.403,311.724,1127.403,280.35z M2083.377,262.613
	l-30.334-8.319c-19.964-5.2-27.719-11.32-27.719-21.867c0-10.28,10.934-17.47,26.561-17.47c14.886,0,26.562,9.745,26.562,22.223
	v1.159h47.922v-1.159c0-36.692-29.917-61.352-74.483-61.352c-44.117,0-76.176,24.63-76.176,58.588
	c0,26.413,17.499,46.317,48.041,54.577l29.057,7.933c22.073,6.12,30.273,12.896,30.273,25.046c0,12.806-11.854,21.422-29.502,21.422
	c-18.392,0-30.779-11.647-30.779-28.938v-1.159h-50.863v1.159c0,41.476,33.395,70.472,81.228,70.472
	c46.079,0,79.533-28.313,79.533-67.293C2132.696,298.502,2124.139,273.487,2083.377,262.613z M1364.16,179.247h51.992v202.205
	h-51.992v-17.113c-16.935,12.896-38.059,20.53-61.352,20.53c-57.725,0-104.519-46.793-104.519-104.521
	c0-57.727,46.794-104.52,104.519-104.52c23.293,0,44.418,7.636,61.352,20.529V179.247z M1364.16,280.35
	c0-31.374-25.432-56.776-56.776-56.776c-31.344,0-56.774,25.432-56.774,56.776s25.431,56.775,56.774,56.775
	C1338.758,337.125,1364.16,311.724,1364.16,280.35z M1603.89,107.29h51.993v274.193h-51.993v-17.113
	c-16.936,12.895-38.059,20.529-61.351,20.529c-57.728,0-104.521-46.793-104.521-104.52c0-57.727,46.792-104.52,104.521-104.52
	c23.292,0,44.415,7.635,61.351,20.529V107.29z M1603.89,280.35c0-31.344-25.433-56.776-56.776-56.776s-56.775,25.432-56.775,56.776
	s25.401,56.775,56.775,56.775C1578.457,337.125,1603.89,311.724,1603.89,280.35z M1897.276,381.453h51.991V179.247h-51.991V381.453z
	 M1923.271,99.268c-17.826,0-31.492,14.083-31.492,31.909c0,17.41,13.666,31.493,31.492,31.493s31.493-14.083,31.493-31.493
	C1954.764,113.35,1941.097,99.268,1923.271,99.268z M2357.422,280.35c0,57.727-46.793,104.52-104.521,104.52
	c-57.726,0-104.519-46.793-104.519-104.52c0-57.727,46.792-104.52,104.519-104.52C2310.629,175.83,2357.422,222.624,2357.422,280.35
	z M2309.679,280.35c0-31.344-25.433-56.776-56.776-56.776c-31.345,0-56.775,25.432-56.775,56.776s25.401,56.775,56.775,56.775
	C2284.246,337.125,2309.679,311.724,2309.679,280.35z M766.07,107.29H566.627v46.377h73.829v227.785h51.814V153.667H766.1V107.29
	H766.07z M1774.692,326.073l-46.258-146.826h-54.607l69.373,202.206h62.568l69.789-202.206h-54.607L1774.692,326.073z
	 M2433.598,213.235v-33.988h-52.111v202.206h52.111V260.207c0-21.956,14.083-32.741,36.038-32.741h28.521v-48.218h-24.361
	C2454.721,179.247,2438.174,189.199,2433.598,213.235L2433.598,213.235z"/>
<circle fill="#34E0A1" cx="265.905" cy="266" r="265.903"/>
<path fill="#020202" d="M430.14,214.126l32.087-34.91h-71.155c-35.622-24.333-78.643-38.504-125.168-38.504
	c-46.467,0-89.367,14.202-124.93,38.504H69.64l32.087,34.91c-19.668,17.944-31.997,43.792-31.997,72.493
	c0,54.16,43.911,98.072,98.073,98.072c25.729,0,49.169-9.924,66.668-26.145l31.434,34.225l31.433-34.195
	c17.5,16.222,40.91,26.115,66.64,26.115c54.161,0,98.132-43.912,98.132-98.072C462.137,257.889,449.809,232.042,430.14,214.126z
	 M167.831,352.99c-36.662,0-66.371-29.709-66.371-66.371c0-36.663,29.71-66.373,66.371-66.373c36.662,0,66.372,29.709,66.372,66.373
	C234.203,323.281,204.493,352.99,167.831,352.99z M265.934,284.688c0-43.674-31.76-81.167-73.681-97.182
	c22.668-9.478,47.535-14.736,73.65-14.736s51.011,5.259,73.681,14.736C297.694,203.55,265.934,241.014,265.934,284.688z
	 M364.006,352.99c-36.662,0-66.372-29.709-66.372-66.371c0-36.663,29.71-66.373,66.372-66.373s66.372,29.709,66.372,66.373
	C430.378,323.281,400.668,352.99,364.006,352.99z M364.006,251.798c-19.223,0-34.791,15.568-34.791,34.791
	c0,19.222,15.568,34.79,34.791,34.79c19.222,0,34.79-15.568,34.79-34.79C398.795,267.396,383.228,251.798,364.006,251.798
	L364.006,251.798z M202.621,286.619c0,19.222-15.567,34.79-34.79,34.79c-19.222,0-34.79-15.568-34.79-34.79
	c0-19.223,15.568-34.791,34.79-34.791C187.054,251.798,202.621,267.396,202.621,286.619z"/>
</svg>
